<svg xmlns="http://www.w3.org/2000/svg" shape-rendering="geometricPrecision" text-rendering="geometricPrecision" image-rendering="optimizeQuality" fill-rule="evenodd" clip-rule="evenodd" viewBox="0 0 421 511.605"><path fill="#54A3CD" d="M95.705.014h199.094L421 136.548v317.555c0 31.54-25.961 57.502-57.502 57.502H95.705c-31.55 0-57.502-25.873-57.502-57.502V57.515C38.203 25.886 64.076.014 95.705.014z"/><path fill="#4A8EAB" d="M341.028 133.408h-.019L421 188.771v-52.066h-54.357c-9.458-.15-17.998-1.274-25.615-3.297z"/><path fill="#7FC0DD" d="M294.8 0L421 136.533v.172h-54.357c-45.068-.718-69.33-23.397-71.843-61.384V0z"/><path fill="#4A8EAB" fill-rule="nonzero" d="M0 431.901V253.404l.028-1.261c.668-16.446 14.333-29.706 30.936-29.706h7.238v50.589h342.975c12.862 0 23.373 10.51 23.373 23.371v135.504c0 12.83-10.543 23.373-23.373 23.373H23.373C10.541 455.274 0 444.75 0 431.901z"/><path fill="#3E728F" fill-rule="nonzero" d="M143.448 240.364a8.496 8.496 0 01-8.496-8.497 8.496 8.496 0 018.496-8.497h163.176a8.496 8.496 0 018.496 8.497 8.496 8.496 0 01-8.496 8.497H143.448zm0-59.176a8.496 8.496 0 010-16.993h172.304a8.496 8.496 0 110 16.993H143.448z"/><path fill="#fff" fill-rule="nonzero" d="M11.329 276.171v154.728c0 7.793 6.38 14.178 14.179 14.178H380.175c7.799 0 14.178-6.379 14.178-14.178V297.405c0-7.798-6.388-14.178-14.178-14.178H37.892c-12.618-.096-19.586-1.638-26.563-7.056z"/><path fill="#212121" fill-rule="nonzero" d="M150.496 378.118l1.965 22.014c-5.504 2.271-12.404 3.406-20.704 3.406-8.297 0-14.957-.874-19.982-2.621-5.022-1.747-8.974-4.497-11.858-8.255-2.881-3.757-4.891-8.167-6.026-13.234-1.137-5.065-1.704-11.312-1.704-18.736 0-7.427.567-13.693 1.704-18.803 1.135-5.11 3.145-9.543 6.026-13.301 5.592-7.248 15.855-10.875 30.793-10.875 3.319 0 7.228.328 11.728.983 4.497.655 7.839 1.464 10.023 2.425l-3.931 20.047c-5.679-1.223-10.875-1.835-15.593-1.835-4.716 0-7.992.437-9.826 1.31-1.835.874-2.753 2.62-2.753 5.241v34.33a51.32 51.32 0 0010.352 1.048c7.425 0 14.021-1.048 19.786-3.144zm9.826 22.014l3.669-21.62c8.037 2.008 15.264 3.012 21.686 3.012 6.421 0 11.595-.262 15.525-.786v-6.551l-11.791-1.049c-10.657-.961-17.974-3.515-21.947-7.664-3.976-4.149-5.963-10.286-5.963-18.411 0-11.181 2.424-18.866 7.273-23.06 4.849-4.194 13.08-6.29 24.698-6.29s22.101 1.092 31.448 3.276l-3.275 20.964c-8.124-1.31-14.632-1.965-19.524-1.965-4.892 0-9.041.219-12.449.655v6.42l9.435.919c11.442 1.134 19.348 3.864 23.715 8.188 4.37 4.325 6.554 10.33 6.554 18.017 0 5.504-.743 10.154-2.229 13.954-1.484 3.8-3.254 6.684-5.307 8.649-2.053 1.965-4.956 3.472-8.713 4.521-3.755 1.047-7.054 1.681-9.893 1.899-2.839.219-6.617.328-11.333.328-11.357 0-21.883-1.135-31.579-3.406zm125.527-80.454h27.647l-20.31 81.894h-38.26l-20.31-81.894h27.646l11.139 52.019h1.179l11.269-52.019z"/></svg>

