<svg xmlns="http://www.w3.org/2000/svg" shape-rendering="geometricPrecision" text-rendering="geometricPrecision" image-rendering="optimizeQuality" fill-rule="evenodd" clip-rule="evenodd" viewBox="0 0 512 475.124" fill="#ebecec90" stroke="#ebecec"><path d="M99.645 78.142C156.951 7.329 223.001-31.186 272.597 31.809c52.128 2.737 73.441 88.806 40.469 126.004l.264.15c3.983 2.319 6.864 5.964 8.238 11.068 1.228 4.562 1.111 10.453-.861 17.758a11.384 11.384 0 01-.554 1.596l-6.897 18.311c-1.53 4.351-2.994 7.457-6.514 10.248-.339.27-.688.516-1.048.741a15.847 15.847 0 01-4.02 2.005c-.827 10.712-3.757 19.674-8.222 27.794-4.614 8.389-10.687 15.48-17.68 22.591a41.67 41.67 0 001.278 1.632c6.643 4.208 12.595 7.499 18.008 10.3 22.009-29.192 56.973-48.067 96.349-48.067C458.01 233.94 512 287.93 512 354.532s-53.99 120.592-120.593 120.592c-33.864 0-64.462-13.964-86.367-36.442H.014c-.531-55.142 14.74-85.258 36.127-103.468 36.401-30.991 88.062-24.924 119.949-63.45a11.516 11.516 0 001.971-1.878C144.154 257.082 132 243.19 128.772 218.84a76.126 76.126 0 01-2.049-1.141l-.377-.214c-7.542-4.29-11.911-11.982-14.181-20.603-2.848-10.811-5.386-45.193 12.966-46.499-.691-27.655 1.169-64.179-25.486-72.241zm328.627 214.703c-3.258-2.234-7.575-1.395-9.842 1.88l-6.214 8.768c-4.199-1.881-9.558-3.107-14.109-3.762l-1.949-11.455c-.739-3.846-4.131-6.332-8.027-5.592l-14.361 2.553c-3.762.756-6.432 4.182-5.727 8.045l1.83 10.463c-4.416 1.848-8.8 4.535-12.529 7.541l-9.741-6.701c-3.259-2.251-7.358-1.545-9.608 1.713l-8.28 11.808c-2.251 3.258-1.579 7.474 1.713 9.725l8.751 6.214c-1.848 4.165-3.107 9.59-3.762 14.108l-11.438 1.949c-3.88.739-6.315 4.098-5.61 8.028l2.552 14.36c.757 3.746 4.199 6.466 8.045 5.727l10.464-1.83c1.932 4.585 4.569 8.7 7.542 12.664l-6.702 9.606c-2.25 3.259-1.529 7.358 1.714 9.608l11.925 8.397c3.174 2.234 7.541 1.294 9.859-1.696l6.197-8.885c4.267 1.881 9.507 3.074 14.125 3.779l1.948 11.439c.706 3.862 4.149 6.331 8.029 5.592l14.36-2.553c3.746-.755 6.432-4.182 5.711-8.028l-1.814-10.464c4.619-1.948 8.649-4.569 12.647-7.558l9.624 6.702c3.275 2.267 7.457 1.595 9.725-1.714l8.397-11.925c2.2-3.174 1.294-7.524-1.696-9.859l-8.885-6.08c1.847-4.165 3.107-9.59 3.762-14.108l11.438-1.948c3.846-.739 6.349-4.115 5.61-8.029l-2.553-14.36c-.756-3.745-4.198-6.467-8.045-5.728l-10.463 1.832c-2.016-4.552-4.418-8.65-7.542-12.53l6.701-9.742c2.251-3.258 1.529-7.356-1.713-9.623l-12.059-8.331zm-36.598 31.257c16.947 0 30.686 13.739 30.686 30.685 0 16.947-13.739 30.686-30.686 30.686-16.946 0-30.685-13.739-30.685-30.686 0-16.946 13.739-30.685 30.685-30.685zm-103.098-32.588c-6.427-3.356-13.563-7.383-21.611-12.706-28.377 27.902-62.396 30.4-102.049.258-13.259 16.023-25.859 24.311-51.207 33.241 37.415 21.927 106.599 28.712 159.837 16.629a119.866 119.866 0 0015.03-37.422zm102.831-39.885c56.832 0 102.904 46.071 102.904 102.903 0 56.832-46.072 102.903-102.904 102.903-56.831 0-102.903-46.071-102.903-102.903 0-56.832 46.072-102.903 102.903-102.903zm-269.336-81.748c1.805-5.166 3.66-7.129 6.439-7.275l19.615 10.214c2.238-23.49 7.597-37.886 15.091-46.961 17.233-8.937 41.934-13.297 63.471-20.4 10.511-2.355 21.155-6.341 31.301-14.375 15.526 7.737 29.8 13.246 34.655 34.081 1.108 11.024.918 24.476-.19 41.009-.294 1.997-.619 4.05-.983 6.173.403-.305.806-.598 1.209-.879a49.289 49.289 0 009.057-4.234c6.989-1.393 11.543 3.141 7.906 16.599l-7.177 19.057c-1.716 4.866-2.867 6.621-9.013 6.3-2.708-.142-.587-1.191-3.311-2.992 2.517 29.998-10.781 44.657-28.996 62.239-28.061 27.078-58.372 25.96-87.5.049-17.057-15.17-33.501-29.262-34.256-60.47-4.427 1.356-3.751 1.597-7.399-.475-10.602-6.03-11.453-26.591-9.919-37.66z"/></svg>
