<svg id="Layer_1" data-name="Layer 1" xmlns="http://www.w3.org/2000/svg" fill="#ebecec90" stroke="#ebecec" viewBox="0 0 122.88 119.15"><defs><style>.cls-1{fill-rule:evenodd;}</style></defs><title>remove-user</title><path class="cls-1" d="M100.58,74.55a22.3,22.3,0,1,1-22.31,22.3,22.29,22.29,0,0,1,22.31-22.3ZM36,56.88c-2.09-3.33-6-7.85-6-11.75a6.29,6.29,0,0,1,4.23-5.71c-.2-3.3-.33-6.65-.33-10,0-2,0-3.94.11-5.88a13.63,13.63,0,0,1,.66-3A21,21,0,0,1,44,8.74a27.24,27.24,0,0,1,5.08-2.43C52.28,5.14,50.72.07,54.25,0c8.23-.21,21.76,7,27,12.7a19.22,19.22,0,0,1,5.39,12.85L86.34,40a4.73,4.73,0,0,1,3.46,3c1.13,4.55-3.59,10.21-5.79,13.83-2,3.34-9.76,12.45-9.76,12.53C74,72.42,76,74.5,79.33,76.2A29.63,29.63,0,0,0,74,109.89H0c0-33.68,45.89-26,45.67-40.64,0-.21-8.89-11.1-9.69-12.37ZM111.14,92.8c1.19,0,2-.12,2,1.36l-.06,4.8c0,1.55-.48,2-1.93,1.94H90c-1.46,0-2-.39-1.94-1.94L88,94.16c0-1.48.83-1.37,2-1.36Z"/></svg>